<?xml version="1.0" encoding="UTF-8" standalone="no"?>
<!DOCTYPE svg PUBLIC "-//W3C//DTD SVG 1.1//EN"
 "http://www.w3.org/Graphics/SVG/1.1/DTD/svg11.dtd">
<!-- Generated by graphviz version 12.0.0 (0)
 -->
<!-- Pages: 1 -->
<svg width="1198pt" height="908pt"
 viewBox="0.00 0.00 1198.38 908.00" xmlns="http://www.w3.org/2000/svg" xmlns:xlink="http://www.w3.org/1999/xlink">
<g id="graph0" class="graph" transform="scale(1 1) rotate(0) translate(4 904)">
<polygon fill="white" stroke="none" points="-4,4 -4,-904 1194.38,-904 1194.38,4 -4,4"/>
<!-- &#45;4587147774012728046 -->
<g id="node1" class="node">
<title>&#45;4587147774012728046</title>
<polygon fill="none" stroke="black" points="502.38,-900 342.38,-900 342.38,-864 502.38,-864 502.38,-900"/>
<text text-anchor="middle" x="422.38" y="-873.5" font-family="Helvetica,sans-Serif" font-size="20.00">Sum(Projection)</text>
</g>
<!-- &#45;4210596928889774041 -->
<g id="node2" class="node">
<title>&#45;4210596928889774041</title>
<polygon fill="none" stroke="black" points="844.75,-828 0,-828 0,-792 844.75,-792 844.75,-828"/>
<text text-anchor="middle" x="422.38" y="-801.5" font-family="Helvetica,sans-Serif" font-size="20.00">Projection(Projection, [&#39;year&#39;, &#39;morphine_equivalent_g&#39;, &#39;BUYER_STATE&#39;, &#39;BUYER_COUNTY&#39;])</text>
</g>
<!-- &#45;4210596928889774041&#45;&gt;&#45;4587147774012728046 -->
<g id="edge1" class="edge">
<title>&#45;4210596928889774041&#45;&gt;&#45;4587147774012728046</title>
<path fill="none" stroke="black" d="M422.38,-828.3C422.38,-835.59 422.38,-844.27 422.38,-852.46"/>
<polygon fill="black" stroke="black" points="418.88,-852.38 422.38,-862.38 425.88,-852.38 418.88,-852.38"/>
</g>
<!-- &#45;7257049028507758382 -->
<g id="node3" class="node">
<title>&#45;7257049028507758382</title>
<polygon fill="none" stroke="black" points="830.12,-756 14.62,-756 14.62,-720 830.12,-720 830.12,-756"/>
<text text-anchor="middle" x="422.38" y="-729.5" font-family="Helvetica,sans-Serif" font-size="20.00">Projection(Assign, [&#39;year&#39;, &#39;morphine_equivalent_g&#39;, &#39;BUYER_STATE&#39;, &#39;BUYER_COUNTY&#39;])</text>
</g>
<!-- &#45;7257049028507758382&#45;&gt;&#45;4210596928889774041 -->
<g id="edge2" class="edge">
<title>&#45;7257049028507758382&#45;&gt;&#45;4210596928889774041</title>
<path fill="none" stroke="black" d="M422.38,-756.3C422.38,-763.59 422.38,-772.27 422.38,-780.46"/>
<polygon fill="black" stroke="black" points="418.88,-780.38 422.38,-790.38 425.88,-780.38 418.88,-780.38"/>
</g>
<!-- 1602931556838937447 -->
<g id="node4" class="node">
<title>1602931556838937447</title>
<polygon fill="none" stroke="black" points="628.38,-684 216.38,-684 216.38,-648 628.38,-648 628.38,-684"/>
<text text-anchor="middle" x="422.38" y="-657.5" font-family="Helvetica,sans-Serif" font-size="20.00">Assign(Assign, morphine_equivalent_g, Mul)</text>
</g>
<!-- 1602931556838937447&#45;&gt;&#45;7257049028507758382 -->
<g id="edge3" class="edge">
<title>1602931556838937447&#45;&gt;&#45;7257049028507758382</title>
<path fill="none" stroke="black" d="M422.38,-684.3C422.38,-691.59 422.38,-700.27 422.38,-708.46"/>
<polygon fill="black" stroke="black" points="418.88,-708.38 422.38,-718.38 425.88,-708.38 418.88,-708.38"/>
</g>
<!-- 815032373103434732 -->
<g id="node5" class="node">
<title>815032373103434732</title>
<polygon fill="none" stroke="black" points="665.75,-612 415,-612 415,-576 665.75,-576 665.75,-612"/>
<text text-anchor="middle" x="540.38" y="-585.5" font-family="Helvetica,sans-Serif" font-size="20.00">Mul(Projection, Projection)</text>
</g>
<!-- 815032373103434732&#45;&gt;1602931556838937447 -->
<g id="edge5" class="edge">
<title>815032373103434732&#45;&gt;1602931556838937447</title>
<path fill="none" stroke="black" d="M510.9,-612.48C495.87,-621.4 477.38,-632.37 461.2,-641.97"/>
<polygon fill="black" stroke="black" points="459.59,-638.85 452.77,-646.97 463.16,-644.88 459.59,-638.85"/>
</g>
<!-- 5652074473193566647 -->
<g id="node6" class="node">
<title>5652074473193566647</title>
<polygon fill="none" stroke="black" points="748.25,-540 332.5,-540 332.5,-504 748.25,-504 748.25,-540"/>
<text text-anchor="middle" x="540.38" y="-513.5" font-family="Helvetica,sans-Serif" font-size="20.00">Projection(Assign, MME_Conversion_Factor)</text>
</g>
<!-- 5652074473193566647&#45;&gt;815032373103434732 -->
<g id="edge6" class="edge">
<title>5652074473193566647&#45;&gt;815032373103434732</title>
<path fill="none" stroke="black" d="M540.38,-540.3C540.38,-547.59 540.38,-556.27 540.38,-564.46"/>
<polygon fill="black" stroke="black" points="536.88,-564.38 540.38,-574.38 543.88,-564.38 536.88,-564.38"/>
</g>
<!-- &#45;3563095954025571390 -->
<g id="node7" class="node">
<title>&#45;3563095954025571390</title>
<polygon fill="none" stroke="black" points="702.12,-468 378.62,-468 378.62,-432 702.12,-432 702.12,-468"/>
<text text-anchor="middle" x="540.38" y="-441.5" font-family="Helvetica,sans-Serif" font-size="20.00">Assign(Assign, year, PropertyMap)</text>
</g>
<!-- &#45;3563095954025571390&#45;&gt;1602931556838937447 -->
<g id="edge4" class="edge">
<title>&#45;3563095954025571390&#45;&gt;1602931556838937447</title>
<path fill="none" stroke="black" d="M413.12,-468.45C372.88,-476.76 335.65,-488.37 323.38,-504 287.77,-549.35 347.68,-608.29 388.76,-640.81"/>
<polygon fill="black" stroke="black" points="386.46,-643.45 396.51,-646.79 390.73,-637.91 386.46,-643.45"/>
</g>
<!-- &#45;3563095954025571390&#45;&gt;5652074473193566647 -->
<g id="edge8" class="edge">
<title>&#45;3563095954025571390&#45;&gt;5652074473193566647</title>
<path fill="none" stroke="black" d="M540.38,-468.3C540.38,-475.59 540.38,-484.27 540.38,-492.46"/>
<polygon fill="black" stroke="black" points="536.88,-492.38 540.38,-502.38 543.88,-492.38 536.88,-492.38"/>
</g>
<!-- &#45;2225977299534171201 -->
<g id="node14" class="node">
<title>&#45;2225977299534171201</title>
<polygon fill="none" stroke="black" points="1190.38,-540 766.38,-540 766.38,-504 1190.38,-504 1190.38,-540"/>
<text text-anchor="middle" x="978.38" y="-513.5" font-family="Helvetica,sans-Serif" font-size="20.00">Projection(Assign, CALC_BASE_WT_IN_GM)</text>
</g>
<!-- &#45;3563095954025571390&#45;&gt;&#45;2225977299534171201 -->
<g id="edge17" class="edge">
<title>&#45;3563095954025571390&#45;&gt;&#45;2225977299534171201</title>
<path fill="none" stroke="black" d="M649.77,-468.48C713.13,-478.61 792.97,-491.37 858.09,-501.78"/>
<polygon fill="black" stroke="black" points="857.31,-505.2 867.74,-503.32 858.42,-498.28 857.31,-505.2"/>
</g>
<!-- 2066239249424874080 -->
<g id="node8" class="node">
<title>2066239249424874080</title>
<polygon fill="none" stroke="black" points="730.12,-396 496.62,-396 496.62,-360 730.12,-360 730.12,-396"/>
<text text-anchor="middle" x="613.38" y="-369.5" font-family="Helvetica,sans-Serif" font-size="20.00">PropertyMap(Projection)</text>
</g>
<!-- 2066239249424874080&#45;&gt;&#45;3563095954025571390 -->
<g id="edge10" class="edge">
<title>2066239249424874080&#45;&gt;&#45;3563095954025571390</title>
<path fill="none" stroke="black" d="M595.33,-396.3C586.64,-404.63 576.06,-414.78 566.52,-423.93"/>
<polygon fill="black" stroke="black" points="564.35,-421.16 559.56,-430.61 569.2,-426.21 564.35,-421.16"/>
</g>
<!-- 6345506637844130907 -->
<g id="node9" class="node">
<title>6345506637844130907</title>
<polygon fill="none" stroke="black" points="725.5,-324 497.25,-324 497.25,-288 725.5,-288 725.5,-324"/>
<text text-anchor="middle" x="611.38" y="-297.5" font-family="Helvetica,sans-Serif" font-size="20.00">Projection(Assign, date)</text>
</g>
<!-- 6345506637844130907&#45;&gt;2066239249424874080 -->
<g id="edge11" class="edge">
<title>6345506637844130907&#45;&gt;2066239249424874080</title>
<path fill="none" stroke="black" d="M611.87,-324.3C612.08,-331.59 612.33,-340.27 612.56,-348.46"/>
<polygon fill="black" stroke="black" points="609.06,-348.49 612.84,-358.38 616.06,-348.29 609.06,-348.49"/>
</g>
<!-- &#45;1786138676242373840 -->
<g id="node10" class="node">
<title>&#45;1786138676242373840</title>
<polygon fill="none" stroke="black" points="708.25,-252 370.5,-252 370.5,-216 708.25,-216 708.25,-252"/>
<text text-anchor="middle" x="539.38" y="-225.5" font-family="Helvetica,sans-Serif" font-size="20.00">Assign(ReadCSV, date, ToDatetime)</text>
</g>
<!-- &#45;1786138676242373840&#45;&gt;&#45;3563095954025571390 -->
<g id="edge9" class="edge">
<title>&#45;1786138676242373840&#45;&gt;&#45;3563095954025571390</title>
<path fill="none" stroke="black" d="M515.89,-252.45C505.39,-261.71 494.1,-274.06 488.38,-288 470.12,-332.4 469.01,-351.65 487.38,-396 491.7,-406.44 499.19,-415.9 507.2,-423.83"/>
<polygon fill="black" stroke="black" points="504.76,-426.35 514.5,-430.51 509.48,-421.18 504.76,-426.35"/>
</g>
<!-- &#45;1786138676242373840&#45;&gt;6345506637844130907 -->
<g id="edge12" class="edge">
<title>&#45;1786138676242373840&#45;&gt;6345506637844130907</title>
<path fill="none" stroke="black" d="M557.17,-252.3C565.65,-260.55 575.96,-270.57 585.31,-279.65"/>
<polygon fill="black" stroke="black" points="582.84,-282.14 592.45,-286.6 587.72,-277.12 582.84,-282.14"/>
</g>
<!-- 6086404032554454095 -->
<g id="node11" class="node">
<title>6086404032554454095</title>
<polygon fill="none" stroke="black" points="743,-180 523.75,-180 523.75,-144 743,-144 743,-180"/>
<text text-anchor="middle" x="633.38" y="-153.5" font-family="Helvetica,sans-Serif" font-size="20.00">ToDatetime(Projection)</text>
</g>
<!-- 6086404032554454095&#45;&gt;&#45;1786138676242373840 -->
<g id="edge14" class="edge">
<title>6086404032554454095&#45;&gt;&#45;1786138676242373840</title>
<path fill="none" stroke="black" d="M610.14,-180.3C598.5,-188.97 584.23,-199.6 571.55,-209.04"/>
<polygon fill="black" stroke="black" points="569.81,-205.97 563.88,-214.75 573.99,-211.58 569.81,-205.97"/>
</g>
<!-- &#45;5216248989721132983 -->
<g id="node12" class="node">
<title>&#45;5216248989721132983</title>
<polygon fill="none" stroke="black" points="895.62,-108 473.12,-108 473.12,-72 895.62,-72 895.62,-108"/>
<text text-anchor="middle" x="684.38" y="-81.5" font-family="Helvetica,sans-Serif" font-size="20.00">Projection(ReadCSV, TRANSACTION_DATE)</text>
</g>
<!-- &#45;5216248989721132983&#45;&gt;6086404032554454095 -->
<g id="edge15" class="edge">
<title>&#45;5216248989721132983&#45;&gt;6086404032554454095</title>
<path fill="none" stroke="black" d="M671.77,-108.3C665.96,-116.27 658.95,-125.9 652.51,-134.74"/>
<polygon fill="black" stroke="black" points="649.79,-132.53 646.73,-142.67 655.45,-136.65 649.79,-132.53"/>
</g>
<!-- &#45;4266505601298843141 -->
<g id="node13" class="node">
<title>&#45;4266505601298843141</title>
<polygon fill="none" stroke="black" points="617,-36 511.75,-36 511.75,0 617,0 617,-36"/>
<text text-anchor="middle" x="564.38" y="-9.5" font-family="Helvetica,sans-Serif" font-size="20.00">ReadCSV</text>
</g>
<!-- &#45;4266505601298843141&#45;&gt;&#45;1786138676242373840 -->
<g id="edge13" class="edge">
<title>&#45;4266505601298843141&#45;&gt;&#45;1786138676242373840</title>
<path fill="none" stroke="black" d="M511.36,-34.47C493.21,-42.58 474.86,-54.58 464.38,-72 436.79,-117.84 481.04,-175.49 512.43,-207.89"/>
<polygon fill="black" stroke="black" points="509.86,-210.28 519.41,-214.88 514.82,-205.33 509.86,-210.28"/>
</g>
<!-- &#45;4266505601298843141&#45;&gt;&#45;5216248989721132983 -->
<g id="edge16" class="edge">
<title>&#45;4266505601298843141&#45;&gt;&#45;5216248989721132983</title>
<path fill="none" stroke="black" d="M594.35,-36.48C609.64,-45.4 628.44,-56.37 644.89,-65.97"/>
<polygon fill="black" stroke="black" points="643.08,-68.96 653.48,-70.98 646.6,-62.91 643.08,-68.96"/>
</g>
<!-- &#45;2225977299534171201&#45;&gt;815032373103434732 -->
<g id="edge7" class="edge">
<title>&#45;2225977299534171201&#45;&gt;815032373103434732</title>
<path fill="none" stroke="black" d="M868.98,-540.48C805.62,-550.61 725.78,-563.37 660.66,-573.78"/>
<polygon fill="black" stroke="black" points="660.33,-570.28 651.01,-575.32 661.44,-577.2 660.33,-570.28"/>
</g>
</g>
</svg>