<?xml version="1.0" encoding="UTF-8" standalone="no"?>
<!DOCTYPE svg PUBLIC "-//W3C//DTD SVG 1.1//EN"
 "http://www.w3.org/Graphics/SVG/1.1/DTD/svg11.dtd">
<!-- Generated by graphviz version 14.1.1 (0)
 -->
<!-- Pages: 1 -->
<svg width="431pt" height="260pt"
 viewBox="0.00 0.00 431.00 260.00" xmlns="http://www.w3.org/2000/svg" xmlns:xlink="http://www.w3.org/1999/xlink">
<g id="graph0" class="graph" transform="scale(1 1) rotate(0) translate(4 256)">
<polygon fill="white" stroke="none" points="-4,4 -4,-256 427.25,-256 427.25,4 -4,4"/>
<!-- &#45;4060848574459665174 -->
<g id="node1" class="node">
<title>&#45;4060848574459665174</title>
<polygon fill="none" stroke="black" points="289.75,-252 133.5,-252 133.5,-216 289.75,-216 289.75,-252"/>
<text xml:space="preserve" text-anchor="middle" x="211.62" y="-225.5" font-family="Helvetica,sans-Serif" font-size="20.00">Max(Projection)</text>
</g>
<!-- &#45;5580704400607755169 -->
<g id="node2" class="node">
<title>&#45;5580704400607755169</title>
<polygon fill="none" stroke="black" points="423.25,-180 0,-180 0,-144 423.25,-144 423.25,-180"/>
<text xml:space="preserve" text-anchor="middle" x="211.62" y="-153.5" font-family="Helvetica,sans-Serif" font-size="20.00">Projection(ArrowStringConversion, DepDelay)</text>
</g>
<!-- &#45;5580704400607755169&#45;&gt;&#45;4060848574459665174 -->
<g id="edge1" class="edge">
<title>&#45;5580704400607755169&#45;&gt;&#45;4060848574459665174</title>
<path fill="none" stroke="black" d="M211.62,-180.3C211.62,-187.59 211.62,-196.27 211.62,-204.46"/>
<polygon fill="black" stroke="black" points="208.13,-204.38 211.63,-214.38 215.13,-204.38 208.13,-204.38"/>
</g>
<!-- &#45;5864417357788180587 -->
<g id="node3" class="node">
<title>&#45;5864417357788180587</title>
<polygon fill="none" stroke="black" points="422.5,-108 0.75,-108 0.75,-72 422.5,-72 422.5,-108"/>
<text xml:space="preserve" text-anchor="middle" x="211.62" y="-81.5" font-family="Helvetica,sans-Serif" font-size="20.00">ArrowStringConversion(FromMapProjectable)</text>
</g>
<!-- &#45;5864417357788180587&#45;&gt;&#45;5580704400607755169 -->
<g id="edge2" class="edge">
<title>&#45;5864417357788180587&#45;&gt;&#45;5580704400607755169</title>
<path fill="none" stroke="black" d="M211.62,-108.3C211.62,-115.59 211.62,-124.27 211.62,-132.46"/>
<polygon fill="black" stroke="black" points="208.13,-132.38 211.63,-142.38 215.13,-132.38 208.13,-132.38"/>
</g>
<!-- 1493610998259134252 -->
<g id="node4" class="node">
<title>1493610998259134252</title>
<polygon fill="none" stroke="black" points="312.62,-36 110.62,-36 110.62,0 312.62,0 312.62,-36"/>
<text xml:space="preserve" text-anchor="middle" x="211.62" y="-9.5" font-family="Helvetica,sans-Serif" font-size="20.00">FromMapProjectable</text>
</g>
<!-- 1493610998259134252&#45;&gt;&#45;5864417357788180587 -->
<g id="edge3" class="edge">
<title>1493610998259134252&#45;&gt;&#45;5864417357788180587</title>
<path fill="none" stroke="black" d="M211.62,-36.3C211.62,-43.59 211.62,-52.27 211.62,-60.46"/>
<polygon fill="black" stroke="black" points="208.13,-60.38 211.63,-70.38 215.13,-60.38 208.13,-60.38"/>
</g>
</g>
</svg>
